<svg data-v-423bf9ae="" xmlns="http://www.w3.org/2000/svg" viewBox="0 0 223.65191133468417 163" class="iconAbove"><!----><!----><!----><g data-v-423bf9ae="" id="079afbf7-86aa-4d1d-80dc-1fb3db21e900" fill="white" transform="matrix(4.279600430881198,0,0,4.279600430881198,-2.3965769451412484,90.9743235109417)"><path d="M0.56 15.64L0.56 15.64L0.56 7.46L0.56 7.46Q0.56 7.14 0.58 6.99L0.58 6.99L0.58 6.99Q0.60 6.83 0.70 6.64L0.70 6.64L0.70 6.64Q0.90 6.26 1.64 6.26L1.64 6.26L1.64 6.26Q2.38 6.26 2.64 6.45L2.64 6.45L2.64 6.45Q2.90 6.64 2.94 7.00L2.94 7.00L2.94 7.00Q3.47 6.27 4.61 6.27L4.61 6.27L4.61 6.27Q5.75 6.27 6.78 7.35L6.78 7.35L6.78 7.35Q7.80 8.43 7.80 9.86L7.80 9.86L7.80 9.86Q7.80 11.28 6.78 12.36L6.78 12.36L6.78 12.36Q5.77 13.44 4.62 13.44L4.62 13.44L4.62 13.44Q3.47 13.44 2.95 12.80L2.95 12.80L2.95 15.62L2.95 15.62Q2.95 15.95 2.93 16.10L2.93 16.10L2.93 16.10Q2.91 16.25 2.81 16.46L2.81 16.46L2.81 16.46Q2.70 16.66 2.45 16.74L2.45 16.74L2.45 16.74Q2.20 16.83 1.76 16.83L1.76 16.83L1.76 16.83Q1.33 16.83 1.07 16.74L1.07 16.74L1.07 16.74Q0.81 16.66 0.71 16.46L0.71 16.46L0.71 16.46Q0.60 16.27 0.58 16.11L0.58 16.11L0.58 16.11Q0.56 15.96 0.56 15.64ZM3.33 9.04L3.33 9.04L3.33 9.04Q3.01 9.42 3.01 9.87L3.01 9.87L3.01 9.87Q3.01 10.32 3.34 10.69L3.34 10.69L3.34 10.69Q3.67 11.06 4.18 11.06L4.18 11.06L4.18 11.06Q4.69 11.06 5.05 10.70L5.05 10.70L5.05 10.70Q5.40 10.33 5.40 9.87L5.40 9.87L5.40 9.87Q5.40 9.41 5.07 9.04L5.07 9.04L5.07 9.04Q4.73 8.67 4.19 8.67L4.19 8.67L4.19 8.67Q3.65 8.67 3.33 9.04ZM12.80 6.29L12.80 6.29L12.80 6.29Q14.20 6.29 15.13 7.35L15.13 7.35L15.13 7.35Q16.06 8.41 16.06 9.95L16.06 9.95L16.06 12.42L16.06 12.42Q16.06 12.74 16.04 12.90L16.04 12.90L16.04 12.90Q16.02 13.06 15.90 13.27L15.90 13.27L15.90 13.27Q15.72 13.64 14.83 13.64L14.83 13.64L14.83 13.64Q13.97 13.64 13.76 13.27L13.76 13.27L13.76 13.27Q13.65 13.06 13.63 12.89L13.63 12.89L13.63 12.89Q13.61 12.73 13.61 12.39L13.61 12.39L13.61 9.94L13.61 9.94Q13.61 9.37 13.29 9.04L13.29 9.04L13.29 9.04Q12.96 8.72 12.47 8.72L12.47 8.72L12.47 8.72Q11.97 8.72 11.59 9.02L11.59 9.02L11.59 9.02Q11.21 9.32 11.16 9.70L11.16 9.70L11.16 12.42L11.16 12.42Q11.16 12.74 11.14 12.90L11.14 12.90L11.14 12.90Q11.12 13.06 11.00 13.27L11.00 13.27L11.00 13.27Q10.82 13.64 9.93 13.64L9.93 13.64L9.93 13.64Q9.04 13.64 8.85 13.26L8.85 13.26L8.85 13.26Q8.75 13.05 8.73 12.89L8.73 12.89L8.73 12.89Q8.71 12.74 8.71 12.40L8.71 12.40L8.71 4.03L8.71 4.03Q8.71 3.71 8.73 3.55L8.73 3.55L8.73 3.55Q8.75 3.39 8.85 3.19L8.85 3.19L8.85 3.19Q9.04 2.81 9.94 2.81L9.94 2.81L9.94 2.81Q10.82 2.81 11.00 3.19L11.00 3.19L11.00 3.19Q11.12 3.40 11.14 3.56L11.14 3.56L11.14 3.56Q11.16 3.72 11.16 4.05L11.16 4.05L11.16 7.14L11.16 7.14Q11.86 6.29 12.80 6.29ZM16.97 9.95L16.97 9.95Q16.97 8.27 18.14 7.18L18.14 7.18L18.14 7.18Q19.32 6.09 20.83 6.09L20.83 6.09L20.83 6.09Q22.34 6.09 23.51 7.18L23.51 7.18L23.51 7.18Q24.67 8.26 24.67 9.94L24.67 9.94L24.67 9.94Q24.67 11.10 24.07 12.01L24.07 12.01L24.07 12.01Q23.46 12.91 22.60 13.34L22.60 13.34L22.60 13.34Q21.74 13.76 20.82 13.76L20.82 13.76L20.82 13.76Q19.89 13.76 19.03 13.31L19.03 13.31L19.03 13.31Q18.16 12.85 17.56 11.96L17.56 11.96L17.56 11.96Q16.97 11.07 16.97 9.95L16.97 9.95ZM19.89 10.96L19.89 10.96L19.89 10.96Q20.34 11.30 20.80 11.30L20.80 11.30L20.80 11.30Q21.27 11.30 21.73 10.95L21.73 10.95L21.73 10.95Q22.19 10.60 22.19 9.91L22.19 9.91L22.19 9.91Q22.19 9.23 21.76 8.89L21.76 8.89L21.76 8.89Q21.32 8.55 20.82 8.55L20.82 8.55L20.82 8.55Q20.31 8.55 19.88 8.90L19.88 8.90L19.88 8.90Q19.45 9.25 19.45 9.93L19.45 9.93L19.45 9.93Q19.45 10.61 19.89 10.96ZM32.69 9.07L32.69 9.07L32.69 9.07Q32.69 9.93 32.26 10.34L32.26 10.34L32.26 10.34Q31.84 10.75 31.32 10.75L31.32 10.75L28 10.75L28 10.75Q28 11.14 28.46 11.41L28.46 11.41L28.46 11.41Q28.92 11.68 29.39 11.68L29.39 11.68L29.39 11.68Q30.20 11.68 30.66 11.51L30.66 11.51L30.81 11.45L30.81 11.45Q31.15 11.30 31.37 11.30L31.37 11.30L31.37 11.30Q31.82 11.30 32.14 11.93L32.14 11.93L32.14 11.93Q32.33 12.31 32.33 12.57L32.33 12.57L32.33 12.57Q32.33 13.82 29.34 13.82L29.34 13.82L29.34 13.82Q28.31 13.82 27.50 13.46L27.50 13.46L27.50 13.46Q26.70 13.10 26.25 12.52L26.25 12.52L26.25 12.52Q25.37 11.38 25.37 9.98L25.37 9.98L25.37 9.98Q25.37 8.22 26.51 7.16L26.51 7.16L26.51 7.16Q27.65 6.10 29.36 6.10L29.36 6.10L29.36 6.10Q31.30 6.10 32.21 7.48L32.21 7.48L32.21 7.48Q32.69 8.20 32.69 9.07ZM27.97 9.48L29.74 9.48L29.74 9.48Q30.27 9.48 30.27 9.03L30.27 9.03L30.27 9.03Q30.27 8.71 30.02 8.51L30.02 8.51L30.02 8.51Q29.78 8.32 29.32 8.32L29.32 8.32L29.32 8.32Q28.87 8.32 28.42 8.69L28.42 8.69L28.42 8.69Q27.97 9.06 27.97 9.48L27.97 9.48ZM37.70 6.26L37.70 6.26L37.70 6.26Q39.10 6.26 40.03 7.33L40.03 7.33L40.03 7.33Q40.96 8.40 40.96 9.94L40.96 9.94L40.96 12.40L40.96 12.40Q40.96 12.73 40.94 12.89L40.94 12.89L40.94 12.89Q40.92 13.05 40.82 13.24L40.82 13.24L40.82 13.24Q40.63 13.62 39.73 13.62L39.73 13.62L39.73 13.62Q38.74 13.62 38.58 13.10L38.58 13.10L38.58 13.10Q38.50 12.87 38.50 12.39L38.50 12.39L38.50 9.93L38.50 9.93Q38.50 9.35 38.17 9.03L38.17 9.03L38.17 9.03Q37.84 8.71 37.29 8.71L37.29 8.71L37.29 8.71Q36.74 8.71 36.39 9.04L36.39 9.04L36.39 9.04Q36.05 9.38 36.05 9.93L36.05 9.93L36.05 12.40L36.05 12.40Q36.05 12.73 36.03 12.89L36.03 12.89L36.03 12.89Q36.01 13.05 35.90 13.24L35.90 13.24L35.90 13.24Q35.71 13.62 34.82 13.62L34.82 13.62L34.82 13.62Q33.94 13.62 33.74 13.24L33.74 13.24L33.74 13.24Q33.64 13.03 33.62 12.87L33.62 12.87L33.62 12.87Q33.60 12.71 33.60 12.39L33.60 12.39L33.60 7.43L33.60 7.43Q33.60 7.13 33.62 6.97L33.62 6.97L33.62 6.97Q33.64 6.80 33.75 6.61L33.75 6.61L33.75 6.61Q33.95 6.26 34.83 6.26L34.83 6.26L34.83 6.26Q35.69 6.26 35.88 6.58L35.88 6.58L35.88 6.58Q36.02 6.82 36.02 7.15L36.02 7.15L36.02 7.15Q36.08 7.06 36.27 6.87L36.27 6.87L36.27 6.87Q36.47 6.69 36.65 6.58L36.65 6.58L36.65 6.58Q37.13 6.26 37.70 6.26ZM42.08 12.40L42.08 7.49L42.08 7.49Q42.08 7.17 42.11 7.01L42.11 7.01L42.11 7.01Q42.13 6.85 42.22 6.64L42.22 6.64L42.22 6.64Q42.42 6.27 43.32 6.27L43.32 6.27L43.32 6.27Q43.99 6.27 44.27 6.51L44.27 6.51L44.27 6.51Q44.51 6.71 44.52 7.11L44.52 7.11L44.52 7.11Q44.53 7.25 44.53 7.52L44.53 7.52L44.53 12.42L44.53 12.42Q44.53 12.74 44.51 12.90L44.51 12.90L44.51 12.90Q44.49 13.06 44.38 13.27L44.38 13.27L44.38 13.27Q44.20 13.64 43.30 13.64L43.30 13.64L43.30 13.64Q42.42 13.64 42.22 13.26L42.22 13.26L42.22 13.26Q42.13 13.05 42.11 12.89L42.11 12.89L42.11 12.89Q42.08 12.74 42.08 12.40L42.08 12.40ZM44.39 4.89L44.39 4.89L44.39 4.89Q44.28 5.10 44.02 5.18L44.02 5.18L44.02 5.18Q43.75 5.26 43.31 5.26L43.31 5.26L43.31 5.26Q42.87 5.26 42.60 5.18L42.60 5.18L42.60 5.18Q42.34 5.10 42.23 4.89L42.23 4.89L42.23 4.89Q42.13 4.68 42.11 4.52L42.11 4.52L42.11 4.52Q42.08 4.35 42.08 4.03L42.08 4.03L42.08 4.03Q42.08 3.71 42.11 3.55L42.11 3.55L42.11 3.55Q42.13 3.39 42.22 3.19L42.22 3.19L42.22 3.19Q42.42 2.81 43.32 2.81L43.32 2.81L43.32 2.81Q44.20 2.81 44.38 3.19L44.38 3.19L44.38 3.19Q44.49 3.40 44.51 3.56L44.51 3.56L44.51 3.56Q44.53 3.72 44.53 4.05L44.53 4.05L44.53 4.05Q44.53 4.37 44.51 4.53L44.51 4.53L44.51 4.53Q44.49 4.69 44.39 4.89ZM52.32 8.37L50.76 9.94L52.32 11.51L52.32 11.51Q52.82 12.01 52.82 12.37L52.82 12.37L52.82 12.37Q52.82 12.73 52.32 13.22L52.32 13.22L52.32 13.22Q51.81 13.72 51.46 13.72L51.46 13.72L51.46 13.72Q51.11 13.72 50.61 13.22L50.61 13.22L49.07 11.66L47.52 13.22L47.52 13.22Q47.01 13.72 46.67 13.72L46.67 13.72L46.67 13.72Q46.33 13.72 45.81 13.22L45.81 13.22L45.81 13.22Q45.30 12.73 45.30 12.37L45.30 12.37L45.30 12.37Q45.30 12.01 45.81 11.51L45.81 11.51L47.36 9.94L45.81 8.37L45.81 8.37Q45.30 7.87 45.30 7.51L45.30 7.51L45.30 7.51Q45.30 7.15 45.81 6.65L45.81 6.65L45.81 6.65Q46.33 6.15 46.67 6.15L46.67 6.15L46.67 6.15Q47.01 6.15 47.52 6.65L47.52 6.65L49.07 8.22L50.61 6.65L50.61 6.65Q51.11 6.15 51.46 6.15L51.46 6.15L51.46 6.15Q51.81 6.15 52.32 6.65L52.32 6.65L52.32 6.65Q52.82 7.15 52.82 7.51L52.82 7.51L52.82 7.51Q52.82 7.87 52.32 8.37L52.32 8.37Z"></path></g><!----><g data-v-423bf9ae="" id="625af684-33e0-473b-a547-d8a2797a5b9b" transform="matrix(1.7543858605465739,0,0,1.7543858605465739,24.28070697267131,-42.407016148437876)" stroke="none" fill="white"><path d="M30.3 42.8c1.4-1.4 2.2-3.3 2.2-5.3s-.8-3.9-2.2-5.3C28.9 30.8 27 30 25 30s-3.9.8-5.3 2.2L7.2 44.7C5.8 46.1 5 48 5 50s.8 3.9 2.2 5.3l12.5 12.5C21.1 69.2 23 70 25 70s3.9-.8 5.3-2.2c1.4-1.4 2.2-3.3 2.2-5.3s-.8-3.9-2.2-5.3L25 51.9 23.1 50l1.9-1.9 5.3-5.3zm-12.5 9l9 9c.5.5.7 1.1.7 1.8s-.3 1.3-.7 1.8c-.9.9-2.6.9-3.5 0L10.7 51.8c-.4-.5-.7-1.1-.7-1.8s.3-1.3.7-1.8l12.5-12.5c.5-.5 1.1-.7 1.8-.7s1.3.3 1.8.7c.5.5.7 1.1.7 1.8s-.3 1.3-.7 1.8l-9 9c-1 .9-1 2.5 0 3.5zM80.3 32.2C78.9 30.8 77 30 75 30s-3.9.8-5.3 2.2c-1.4 1.4-2.2 3.3-2.2 5.3s.8 3.9 2.2 5.3l5.3 5.3 1.9 1.9-1.9 1.9-5.3 5.3c-1.4 1.4-2.2 3.3-2.2 5.3s.8 3.9 2.2 5.3C71.1 69.2 73 70 75 70s3.9-.8 5.3-2.2l12.5-12.5C94.2 53.9 95 52 95 50s-.8-3.9-2.2-5.3L80.3 32.2zm9 19.6L76.8 64.3c-.9.9-2.6.9-3.5 0-.5-.5-.7-1.1-.7-1.8s.3-1.3.7-1.8l9-9c1-1 1-2.6 0-3.5l-9-9c-.5-.5-.7-1.1-.7-1.8s.3-1.3.7-1.8c.5-.5 1.1-.7 1.8-.7s1.3.3 1.8.7l12.5 12.5c.5.5.7 1.1.7 1.8s-.4 1.4-.8 1.9zM43.2 75.4c.6.2 1.3.3 1.9.3 3.4 0 6.4-2.3 7.2-5.6L62 33.9c.5-1.9.3-4-.7-5.7-1-1.7-2.6-3-4.6-3.5-.6-.2-1.3-.3-1.9-.3-3.4 0-6.4 2.3-7.2 5.6l-9.7 36.2c-.5 1.9-.3 4 .7 5.7 1.1 1.7 2.7 2.9 4.6 3.5zm-.5-7.9l9.7-36.2c.3-1.1 1.3-1.9 2.4-1.9.2 0 .4 0 .6.1.6.2 1.2.6 1.5 1.2.3.6.4 1.3.2 1.9l-9.7 36.2c-.3 1.3-1.7 2.1-3.1 1.8-.6-.2-1.2-.6-1.5-1.2-.2-.6-.2-1.3-.1-1.9z"></path></g><!----></svg>